# xmcd
#
# Track frame offsets: 
#        150
#        28167
#        45325
#        60342
#        81530
#        99457
#        111640
#        122420
#        134715
#        151502
#        162295
#        176670
#        191152
#        209582
#        226100
#
# Disc length: 3106 seconds
#
# Revision: 6
# Processed by: cddbd v1.5.2PL0 Copyright (c) Steve Scherf et al.
# Submitted via: ExactAudioCopy v0.99pb5
#
DISCID=cb0c200f
DTITLE=Johnny Cash and Willie Nelson - Storytellers
DYEAR=1998
DGENRE=Country
TTITLE0=(Ghost) Riders in the Sky
TTITLE1=Worried Man
TTITLE2=Family Bible
TTITLE3=Don't Take Your Guns To Town
TTITLE4=Funny How Time Slips Away
TTITLE5=Flesh and Blood
TTITLE6=Crazy
TTITLE7=Unchained
TTITLE8=Night Life
TTITLE9=Drive On
TTITLE10=Me and Paul
TTITLE11=I Still Miss Someone
TTITLE12=Always on My Mind
TTITLE13=Folsom Prison Blues
TTITLE14=On the Road Again
EXTD=CK 69416/American  Recording Company/1998\nProduced by Rick Rubin
EXTT0=
EXTT1=
EXTT2=
EXTT3=
EXTT4=
EXTT5=
EXTT6=
EXTT7=
EXTT8=
EXTT9=
EXTT10=
EXTT11=
EXTT12=
EXTT13=
EXTT14=
PLAYORDER=
